<?xml version="1.0" encoding="UTF-8"?>
<svg id="svg1" xmlns="http://www.w3.org/2000/svg" xmlns:xlink="http://www.w3.org/1999/xlink" viewBox="0 0 405.39 459.58">
  <defs>
    <style>
      .cls-1 {
        fill: url(#Sfumatura_senza_nome_115);
        stroke: url(#Sfumatura_senza_nome_76);
        stroke-miterlimit: 10;
      }
    </style>
    <linearGradient id="Sfumatura_senza_nome_115" data-name="Sfumatura senza nome 115" x1="202.7" y1=".5" x2="202.7" y2="459.08" gradientUnits="userSpaceOnUse">
      <stop offset="0" stop-color="#1519fa"/>
      <stop offset="1" stop-color="#6d00fe"/>
    </linearGradient>
    <linearGradient id="Sfumatura_senza_nome_76" data-name="Sfumatura senza nome 76" x1="202.7" y1="459.58" x2="202.7" y2="0" gradientUnits="userSpaceOnUse">
      <stop offset="0" stop-color="#1519fa"/>
      <stop offset="1" stop-color="#6d00fe"/>
    </linearGradient>
  </defs>
  <g id="layer1">
    <path id="path1" class="cls-1" d="M192.87,457.41c-1.88-.95-4.42-3.16-5.82-5.06-8.2-11.13-11.82-13.58-22.32-15.07-8.08-1.15-24.98-.41-43.46,1.9-38.96,4.88-51.71,5.94-86.63,7.17-30.4,1.07-28.22,1.19-31.08-1.68-1.45-1.45-2.65-3.57-2.96-5.26-.49-2.6.54-4.99,13.47-31.13,7.7-15.57,16.01-32.44,18.48-37.49l4.49-9.19h9.68c5.32,0,9.68.19,9.68.42,0,.49-3.74,8.3-16.13,33.7-10.77,22.09-12.16,25.1-12.49,27-.25,1.47.1,1.5,16.24,1.3,23.19-.28,39.02-1.69,81.75-7.28,18.52-2.42,35.45-2.57,44.13-.38,10.91,2.75,20.13,9.39,24.21,17.43l1.81,3.56h6.92s6.92-.02,6.92-.02l1.49-3.18c2.28-4.87,9.98-12.21,15.52-14.8,8.22-3.84,14.77-4.75,30.99-4.29,8.6.24,18.12,1,24,1.92,23.98,3.74,54.68,6.56,79.8,7.32l16.8.51-.54-2.17c-.53-2.13-2.44-6.12-20.26-42.57-4.81-9.84-8.59-18.05-8.4-18.24.38-.38,18.52-.48,18.84-.1.11.13,8.56,17,18.77,37.49,16.69,33.49,18.52,37.51,18.08,39.86-.6,3.21-3,6.38-5.57,7.35-1.25.48-10.31.45-25.96-.07-37.46-1.25-49.79-2.22-87.04-6.84-28.23-3.5-42.34-3.68-53.04-.66-4.25,1.2-8.72,5.03-13.1,11.24-5.31,7.53-8,8.94-17.14,8.97-5.57.02-7.37-.28-10.11-1.67h0ZM204.61,436.01c-.51-.82,1.35-10.02,3.29-16.29,6.06-19.54,20.93-32.43,41-35.54,10.55-1.63,19.82-1.09,43.36,2.53,23.75,3.66,30.43,4.28,46.5,4.32,8.66.02,16.83-.2,18.15-.5,2.25-.51,2.49-.35,3.99,2.58.88,1.72,1.39,3.32,1.15,3.57-.24.24-5.25.75-11.11,1.12-13.19.84-32.16-.26-48.92-2.85-28.97-4.46-34.21-5.02-44.25-4.67-16.2.55-26.27,4.85-37.29,15.92-7.4,7.42-8.87,9.91-3.08,5.19,8.53-6.95,19.48-10.55,34.37-11.3,10.09-.51,16.78.12,40.9,3.87,27.67,4.3,38.43,5.14,58.7,4.59l17.84-.49,1.44,3.2,1.44,3.2-3.91.49c-2.15.27-11.67.52-21.16.55-21.12.08-30.43-.82-66-6.36-9.23-1.44-15.86-2.01-24-2.06-13.28-.09-19.08,1.07-28.88,5.77-8.02,3.85-16.57,11.93-20.16,19.05-2.4,4.76-2.72,5.15-3.37,4.1h0ZM199.09,434.91c-.4-.52-.95-1.57-1.23-2.35-1.21-3.37-7.98-11.39-12.48-14.78-15.05-11.34-31.02-13.35-64.88-8.18-25.26,3.86-29.94,4.48-39.69,5.3-10.79.9-45.67.72-46.63-.24-.3-.3.06-1.88.8-3.51l1.34-2.97,18.09.42c20.41.47,29.8-.28,57.84-4.6,9.08-1.4,20.04-2.95,24.38-3.45,9.42-1.09,23.86-.51,31.65,1.26,6.44,1.46,15.23,5.87,20.41,10.23,4.25,3.58,3.83,2.41-1.26-3.48-6.86-7.94-16.24-13.85-26.42-16.62-2.56-.7-8.71-1.38-14.25-1.59-9.91-.36-15.13.2-46.26,4.96-15.17,2.32-29.76,3.23-42.54,2.64-6.36-.29-12.33-.74-13.28-1l-1.72-.47,1.46-3.25c1.37-3.07,1.59-3.22,3.81-2.73,1.29.28,9.31.52,17.82.53,16.48.01,24.97-.81,49.6-4.77,31.62-5.09,48.84-3.28,63.48,6.67,8.31,5.65,14.04,13.65,17.98,25.13,1.8,5.26,4.04,14.53,4.04,16.73,0,1.33-1.07,1.4-2.04.14h0ZM46.64,405.33c-6.4-.38-7.42-.74-6.97-2.49.22-.83.66-1.68.98-1.88.32-.2,6.45-.01,13.61.41,18.78,1.12,44.31-1.04,66.8-5.66,10.11-2.07,25.35-2.99,32.95-1.98,6.64.88,16,4.14,15.28,5.32-.18.29-2.79.06-5.8-.5-6.43-1.2-26.5-1.34-34.04-.24-2.85.41-8.56,1.29-12.68,1.93-32.89,5.18-48.8,6.33-70.12,5.07h0ZM320.39,404.78c-13.47-1.55-20.7-2.56-32.66-4.55-17.13-2.86-28.84-3.69-37.58-2.69-4.06.47-9.08,1.01-11.14,1.2l-3.75.35,4.5-2.15c9.91-4.73,21.87-4.83,48.18-.44,28.84,4.82,44.39,5.98,64.26,4.79,10.17-.61,12.81-.57,13.3.21.96,1.51.74,2.64-.6,3.15-2.67,1.02-35.9,1.12-44.52.12h0ZM185.76,382.86c-2.06-1.46-7.13-4.3-11.25-6.29-18.93-9.16-35.07-10.54-70.88-6.05-12.4,1.56-11.28,1.86-18.15-4.88-10.1-9.9-16.47-24.81-19.5-45.66-.76-5.21-.98-24.2-.98-83.25v-76.5l1.67-6.57c2.88-11.28,7.23-17.89,16.58-25.15,3.93-3.05,41.63-22.7,42.29-22.04.33.33.5,44.89.4,99.04l-.2,98.45,2.2-.44c5.51-1.1,15.31-9.79,19.71-17.48,1.36-2.38,3.39-7.02,4.51-10.32l2.03-6,.49-85.87c.53-92.95.66-96.12,4.78-112.38,7.4-29.21,26.61-54.74,51.44-68.39,2.96-1.63,5.69-2.78,6.05-2.55.36.23.66,3.55.66,7.39,0,12.98,3.05,25.01,8.71,34.31,5.2,8.56,13.76,16.33,22.04,20.01,1.95.86,4.57,1.11,10.13.94,16.31-.5,33.4,4.96,48.07,15.34,6.47,4.58,17.29,16.32,21.53,23.37,6.68,11.11,10.2,21.91,11.87,36.39,2.09,18.14-3.14,39.51-13.34,54.56-3.99,5.89-10.04,12.48-14.73,16.06-1.53,1.16-2.77,2.34-2.77,2.62s1.94,1.65,4.31,3.06c15.25,9.05,28.4,23.1,35.41,37.84,10.76,22.65,11.92,52.06,2.97,75.53-6.31,16.55-17.03,30.23-30.94,39.49-6.83,4.55-6.96,4.56-22.25,2.63-14.42-1.82-42.58-1.84-50-.04-8.14,1.98-16.05,5.26-25.77,10.67l-8.78,4.89-12.29-.04-12.29-.04-3.75-2.66ZM267.81,322.67c3.28-1.2,7.43-3.18,9.21-4.41,12.3-8.47,18.89-24.08,16.46-38.95-2.11-12.89-10.42-24.67-21.14-29.97-5.86-2.9-6.3-3.03-14.96-4.32-16.08-2.4-25.96-11.7-29.03-27.32-1.1-5.58-1.1-6.6,0-12.18,1.53-7.75,4.2-13.01,9.18-18.07,4.38-4.45,9.78-7.5,16.27-9.19,8.84-2.3,14.12-5.89,19.25-13.08,5.44-7.64,6.91-19.88,3.47-29.01-4.04-10.74-10.92-16.87-23.1-20.58-4.39-1.34-34.99-1.25-35.85.11-.73,1.15-.94,204.77-.21,207.48l.45,1.69h44.03l5.97-2.18ZM88.41,96.08c-11.39-2.87-19.38-10.55-22.78-21.89-1.49-4.98-1.65-18.2-.29-23.84,3.18-13.14,12.5-21.88,25.55-23.95,12.71-2.01,26.87,4.99,32.15,15.9,5.14,10.63,4.96,29.02-.38,38.84-2.76,5.07-8.3,10.08-14.21,12.84-3.92,1.83-6.1,2.34-11.04,2.55-3.39.14-7.44-.06-9.01-.46h0Z"/>
  </g>
</svg>